PathFileType	4	(X/Y/Z)	path1_22_0-584.trc
DataRate	CameraRate	NumFrames	NumMarkers	Units	OrigDataRate	OrigDataStartFrame	OrigNumFrames
30	30	6	22	m	30	511	584
Frame#	Time	Hip			RHip			RKnee			RAnkle			RBigToe			RSmallToe			RHeel			LHip			LKnee			LAnkle			LBigToe			LSmallToe			LHeel			Neck			Head			Nose			RShoulder			RElbow			RWrist			LShoulder			LElbow			LWrist		
		X1	Y1	Z1	X2	Y2	Z2	X3	Y3	Z3	X4	Y4	Z4	X5	Y5	Z5	X6	Y6	Z6	X7	Y7	Z7	X8	Y8	Z8	X9	Y9	Z9	X10	Y10	Z10	X11	Y11	Z11	X12	Y12	Z12	X13	Y13	Z13	X14	Y14	Z14	X15	Y15	Z15	X16	Y16	Z16	X17	Y17	Z17	X18	Y18	Z18	X19	Y19	Z19	X20	Y20	Z20	X21	Y21	Z21	X22	Y22	Z22
512	17.066666666666666	-2.432409839824865	0.7807224083561991	0.7795058427407586	-2.438481004692686	0.7465078862179737	0.6865449027437532	-2.3801278218109054	0.4183005952913413	0.6895416044203462	-2.336579878820991	0.06247037372097313	0.7160597981837331	-2.512145708965926	-0.02113575882828889	0.7199607818959077	-2.4826160410357954	-0.03472693282369813	0.6662778735992604	-2.2916853361578635	-0.002607530181414703	0.7342510271520046	-2.42165861022901	0.7482742000665779	0.8517797388405821	-2.3972265754866284	0.3958904562021288	0.861803932781823	-2.339011460646198	0.06369935779135988	0.8521631530811264	-2.556092321605713	-0.029475568746218643	0.8612080099480764	-2.5584559548895998	-0.05026513997110976	0.8843563863485867	-2.3005426800984883	-0.000791076949338337	0.8455572006824388	-2.4210587911921566	1.4345409749421245	0.7716230381455685	-2.528729803104794	1.606525159980821	0.7885389740102055	-2.5661766887334014	1.4451494703943766	0.7486295918673582	-2.3811191169119876	1.3272796397788786	0.5987029639344679	-2.3157027534180568	1.055512682017335	0.5590238714058723	-2.3119406657749404	0.812270244402509	0.5566590414004893	-2.3844834863080324	1.3219550796409545	0.9535731799307288	-2.3592135009584516	1.059666329529001	0.9951114024090018	-2.3527706917244333	0.8208881427657018	1.0250032780355545
513	17.1	-2.433097860506814	0.7803097791209445	0.7809838152133521	-2.439373609074159	0.7463588905809145	0.6880183360064048	-2.381310921499634	0.4197597306549445	0.6897936452901676	-2.3365986181287144	0.062357753393204915	0.7160023433024038	-2.5131023689614915	-0.02080781968915149	0.7199386456290368	-2.4835914802400088	-0.034155697262438264	0.6669999353237689	-2.291625527918895	-0.002449299250984954	0.7336935352819142	-2.4217035315761195	0.748376760139918	0.8527238008519883	-2.395253054513006	0.39708717352229844	0.8622838582477296	-2.337644912896117	0.06413752310593289	0.8525486336306495	-2.559351570147023	-0.030192603458418593	0.861880367302122	-2.5572371500146764	-0.05047476956342153	0.8846975498189298	-2.2988657038509146	-0.00015739384144644516	0.8455218432205668	-2.4221768142128	1.433971298527028	0.7741095009620418	-2.52528824143872	1.608887255398798	0.7922339653196777	-2.56725841218665	1.4478224142531904	0.7517423775784776	-2.3837847015496463	1.3265567889892516	0.601261567287618	-2.3171994881287192	1.0551744055169423	0.5626564763089739	-2.3107973382104428	0.8122611927651511	0.5601156437453878	-2.386143695825613	1.3212011751120387	0.9568578321889675	-2.3584886911202414	1.058972360246931	0.9925586733232217	-2.3502323498294015	0.8203444632578333	1.018602865787062
514	17.133333333333333	-2.4333693508469394	0.7807117398476268	0.7823918111269218	-2.439578733108166	0.7470242150305646	0.6899034937669298	-2.3823155567014043	0.42138886297316186	0.6905999905715382	-2.336514574502141	0.06238486715375636	0.7159974240905184	-2.5150533068012804	-0.021284683820522975	0.7206595763951904	-2.4848246520049933	-0.03413784543443369	0.6687957194324757	-2.291302515683463	-0.002332298550325728	0.7331919251632897	-2.421947741926082	0.7489484335835641	0.853888497895349	-2.3936646354534052	0.39864793315678215	0.863055896272055	-2.3371902040938837	0.0642848752006726	0.853285593571763	-2.5557264268470976	-0.02938037442917068	0.8630752918407162	-2.55620018413798	-0.05030923959504429	0.885197874412642	-2.297992014060996	-1.2218471938683754e-05	0.845997971624813	-2.4227756120508612	1.4336360508974537	0.7767501617852729	-2.5259899936767614	1.614024741194915	0.7938249981947827	-2.567912603440615	1.4518089327756933	0.7545173962810091	-2.385886283084471	1.3264665954451704	0.6037258875366918	-2.318843293594877	1.0551344915822685	0.566790934844041	-2.3113410699065895	0.8121649447340538	0.5644795404606165	-2.387895874687527	1.3204886376068568	0.9599181047252059	-2.358669012413579	1.058103588028098	0.9902374726682468	-2.3502303591521265	0.8192483403334857	1.011780303456117
515	17.166666666666668	-2.4334236405369256	0.7816993383833354	0.7837730813766832	-2.439430743537276	0.7483206593370053	0.692091660103899	-2.383086792651912	0.42287271897376544	0.6918796032659125	-2.3362865134011908	0.06255332601537095	0.7161195414804318	-2.518248997436843	-0.02283136798001202	0.7221122432179081	-2.4861462640530934	-0.034685597326286406	0.6715066094739712	-2.2906423620560865	-0.002337955342318729	0.7327945777283551	-2.422530135493646	0.749855617432324	0.8553200923191102	-2.3925779658675803	0.40005471174092183	0.8640694993889076	-2.337675968167049	0.06388129783914481	0.8540884424079539	-2.5445354157581503	-0.02691347186916684	0.8644974063131394	-2.555571541887546	-0.04988203814991765	0.8855979216028114	-2.2978229972921564	-0.0006067506182666927	0.846682906094133	-2.4228783737469834	1.4334896012400253	0.779369958838424	-2.5297270181115703	1.6207360589769857	0.7940713640253002	-2.567693555175245	1.4562714239589112	0.7565715780387134	-2.387270801668462	1.3269270093821082	0.6057861284589351	-2.32062834592908	1.0553313962253055	0.5710230061715938	-2.3135991983274833	0.811957284961449	0.5694176489681338	-2.38981668295701	1.3197217726593051	0.9626419853501877	-2.3597551677452917	1.0569928268462891	0.9882022468379477	-2.352671645262383	0.8175543401665156	1.005002136149506
516	17.2	-2.433466367727095	0.7829399834207922	0.7851292367026664	-2.4392393548510434	0.7498567028463321	0.6944606014446183	-2.3835726902691814	0.42396349725455645	0.6933966434440546	-2.3359454243202964	0.06277133293136554	0.7164094498422849	-2.522443204102716	-0.025332556224604032	0.7239459918289057	-2.4873867404126226	-0.03567891976466841	0.6746217851535531	-2.2896862860574547	-0.0024755267996075117	0.7324788299633516	-2.4234140025705115	0.7508953677180179	0.857065083561389	-2.391833186513731	0.4010217527275895	0.8651785078011621	-2.3385890909834304	0.06291121962649734	0.8546585081832585	-2.5289138036107652	-0.023399454843450827	0.8658067052985354	-2.555323897015548	-0.049291299731064844	0.8857866090426266	-2.2977108544935696	-0.0019148976366638556	0.8471893675291923	-2.422565368433577	1.4334582024469849	0.7817643517160168	-2.533974392250063	1.6272266157883108	0.7944381908050208	-2.566541878757447	1.4605673110458457	0.7578217743365276	-2.387886682024909	1.3277003850757128	0.607289066823975	-2.3225247514140226	1.055615845224211	0.5749676423522001	-2.31730321950572	0.8115295454199032	0.5744939082533331	-2.391802373124534	1.3188916936852335	0.9649828270158975	-2.3616157800135875	1.0556387809912526	0.9865003622821906	-2.3571408105305984	0.8152735000392143	0.9987517349733407
517	17.233333333333334	-2.4336474461337314	0.7841286100208477	0.7863797658064059	-2.4392129515980576	0.7511984979797353	0.6968362245496031	-2.3837349301087443	0.4245863838581793	0.6948710980038942	-2.335589166782098	0.06296869411632633	0.7168712085982422	-2.5263514476567726	-0.028055026461006834	0.725590538290704	-2.488438020739779	-0.03689641226896491	0.6775552208237446	-2.2885838553069298	-0.0026446766051539715	0.7321851812506983	-2.4244247082427814	0.7518292801766696	0.8590745112864968	-2.3912256769861155	0.4015088596870631	0.8662166316707487	-2.3392898002327556	0.06164623421519766	0.8548503873047627	-2.5137165474938215	-0.019812362876459922	0.8667155023135037	-2.555249359179407	-0.04862301557727291	0.8858331256101197	-2.296996498652532	-0.003582148484216162	0.8472651640388815	-2.42198681744389	1.4334963432365584	0.7837910633983028	-2.5349379083505776	1.6312747335355822	0.7968346278533045	-2.564685340535235	1.4643139432953434	0.7584340100598079	-2.387882676890259	1.3285184919672395	0.6083027653756277	-2.324466912513119	1.0558386625538374	0.578373637400697	-2.3219126807971295	0.8108198606769836	0.5791695244158869	-2.393610836809208	1.3180778362946175	0.9669411583761098	-2.3640201322373664	1.0541652141763886	0.9851527171286705	-2.3629933922651185	0.812582932665856	0.9934227921019455
